<svg width="40" height="40" viewBox="0 0 40 40" fill="none" xmlns="http://www.w3.org/2000/svg">
<path d="M16.4587 15H14.3753C14.3201 15 14.2671 15.0219 14.228 15.061C14.1889 15.1001 14.167 15.1531 14.167 15.2083V23.125C14.167 23.1803 14.1889 23.2332 14.228 23.2723C14.2671 23.3114 14.3201 23.3333 14.3753 23.3333H16.4587C16.5139 23.3333 16.5669 23.3114 16.606 23.2723C16.645 23.2332 16.667 23.1803 16.667 23.125V15.2083C16.667 15.1531 16.645 15.1001 16.606 15.061C16.5669 15.0219 16.5139 15 16.4587 15ZM16.2503 22.9167H14.5837V15.4167H16.2503V22.9167Z" fill="#FFE600"/>
<path d="M26.0418 15H21.0418L21.5251 12.5792C21.5871 12.2734 21.5488 11.9559 21.4159 11.6737C21.2831 11.3914 21.0627 11.1596 20.7876 11.0125L20.5043 10.8583C20.4555 10.8328 20.3987 10.8272 20.3458 10.8427C20.2929 10.8583 20.2482 10.8938 20.221 10.9417L17.9293 15.1083C17.9127 15.1391 17.9041 15.1734 17.9043 15.2083V22.2917C17.9043 22.4295 17.9316 22.566 17.9848 22.6932C18.0379 22.8204 18.1157 22.9358 18.2138 23.0327C18.3119 23.1296 18.4282 23.2061 18.556 23.2577C18.6838 23.3093 18.8206 23.335 18.9585 23.3333H24.0793C24.5848 23.3345 25.0805 23.1938 25.5099 22.9271C25.9394 22.6605 26.2854 22.2786 26.5085 21.825L27.9168 18.625C27.923 18.5976 27.923 18.5691 27.9168 18.5417V16.875C27.9157 16.3781 27.7178 15.9018 27.3664 15.5504C27.015 15.199 26.5387 15.0011 26.0418 15ZM27.5001 18.5L26.1293 21.6667C25.9374 22.0448 25.6439 22.3621 25.2819 22.5829C24.9198 22.8037 24.5034 22.9192 24.0793 22.9167H18.9585C18.7927 22.9167 18.6337 22.8508 18.5165 22.7336C18.3993 22.6164 18.3335 22.4574 18.3335 22.2917V15.2625L20.5001 11.325L20.6001 11.3792C20.7968 11.4847 20.9543 11.6505 21.0496 11.8523C21.1448 12.0541 21.1728 12.2811 21.1293 12.5L20.596 15.1667C20.5902 15.1971 20.591 15.2285 20.5982 15.2586C20.6054 15.2888 20.6188 15.3171 20.6376 15.3417C20.658 15.3648 20.683 15.3835 20.7109 15.3964C20.7389 15.4093 20.7693 15.4162 20.8001 15.4167H26.0418C26.4286 15.4167 26.7995 15.5703 27.073 15.8438C27.3465 16.1173 27.5001 16.4882 27.5001 16.875V18.5Z" fill="#FFE600"/>
<path d="M28.9753 8.33331H11.0253C9.86976 8.33442 8.76184 8.79395 7.94474 9.61106C7.12763 10.4282 6.6681 11.5361 6.66699 12.6916V22.725C6.6681 23.8805 7.12763 24.9885 7.94474 25.8056C8.76184 26.6227 9.86976 27.0822 11.0253 27.0833H15.942L19.8378 32.0041C19.8573 32.0285 19.8821 32.0481 19.9102 32.0616C19.9383 32.0751 19.9691 32.0821 20.0003 32.0821C20.0315 32.0821 20.0623 32.0751 20.0904 32.0616C20.1186 32.0481 20.1433 32.0285 20.1628 32.0041L24.0587 27.0833H28.9753C30.1309 27.0822 31.2388 26.6227 32.0559 25.8056C32.873 24.9885 33.3326 23.8805 33.3337 22.725V12.6916C33.3326 11.5361 32.873 10.4282 32.0559 9.61106C31.2388 8.79395 30.1309 8.33442 28.9753 8.33331ZM32.917 22.725C32.9148 23.7697 32.4988 24.771 31.7601 25.5097C31.0213 26.2485 30.02 26.6644 28.9753 26.6666H23.9753C23.944 26.6665 23.913 26.6735 23.8848 26.6873C23.8567 26.701 23.832 26.721 23.8128 26.7458L20.0003 31.5375L16.2045 26.7458C16.1853 26.721 16.1607 26.701 16.1325 26.6873C16.1043 26.6735 16.0733 26.6665 16.042 26.6666H11.042C10.5233 26.6677 10.0094 26.5667 9.52976 26.3692C9.0501 26.1717 8.61404 25.8816 8.24648 25.5156C7.87891 25.1496 7.58704 24.7148 7.38752 24.2359C7.188 23.7571 7.08475 23.2437 7.08366 22.725V12.6916C7.08586 11.6469 7.50185 10.6456 8.24058 9.9069C8.97931 9.16817 9.98061 8.75218 11.0253 8.74998H28.9753C30.02 8.75218 31.0213 9.16817 31.7601 9.9069C32.4988 10.6456 32.9148 11.6469 32.917 12.6916V22.725Z" fill="#FFE600"/>
</svg>
