<svg width="41" height="40" viewBox="0 0 41 40" fill="none" xmlns="http://www.w3.org/2000/svg">
<path d="M13.6704 32.1622C13.6704 32.327 13.4809 32.4588 13.242 32.4588C12.97 32.4836 12.7805 32.3517 12.7805 32.1622C12.7805 31.9974 12.97 31.8655 13.209 31.8655C13.4562 31.8408 13.6704 31.9727 13.6704 32.1622ZM11.1078 31.7914C11.0501 31.9562 11.2149 32.1457 11.4621 32.1951C11.6763 32.2775 11.9235 32.1951 11.973 32.0303C12.0224 31.8655 11.8658 31.676 11.6186 31.6019C11.4044 31.5442 11.1654 31.6266 11.1078 31.7914ZM14.7499 31.6513C14.5109 31.709 14.3461 31.8655 14.3709 32.0551C14.3956 32.2199 14.6098 32.327 14.857 32.2693C15.096 32.2116 15.2608 32.0551 15.2361 31.8903C15.2114 31.7337 14.9889 31.6266 14.7499 31.6513ZM20.1719 0.0749512C8.74282 0.0749512 0 8.75185 0 20.181C0 29.3193 5.75164 37.1393 13.9671 39.8915C15.0218 40.081 15.3926 39.43 15.3926 38.8944C15.3926 38.3835 15.3679 35.5654 15.3679 33.8349C15.3679 33.8349 9.5998 35.071 8.3885 31.3794C8.3885 31.3794 7.44912 28.9815 6.09773 28.3635C6.09773 28.3635 4.21073 27.0698 6.22957 27.0945C6.22957 27.0945 8.28137 27.2593 9.41028 29.2204C11.2149 32.4011 14.239 31.4865 15.4174 30.9426C15.6069 29.6242 16.1425 28.7096 16.7358 28.1657C12.1295 27.6548 7.48208 26.9874 7.48208 19.0603C7.48208 16.7943 8.10833 15.6571 9.42676 14.2068C9.21251 13.6712 8.5121 11.4629 9.641 8.61177C11.3632 8.07616 15.3267 10.8366 15.3267 10.8366C16.9748 10.3752 18.7464 10.1362 20.5016 10.1362C22.2567 10.1362 24.0283 10.3752 25.6764 10.8366C25.6764 10.8366 29.6399 8.06792 31.3621 8.61177C32.491 11.4711 31.7906 13.6712 31.5763 14.2068C32.8948 15.6654 33.7023 16.8025 33.7023 19.0603C33.7023 27.0121 28.8488 27.6466 24.2426 28.1657C25.0007 28.8167 25.6434 30.0527 25.6434 31.9891C25.6434 34.7661 25.6187 38.2022 25.6187 38.8779C25.6187 39.4135 25.9977 40.0645 27.0442 39.875C35.2844 37.1392 40.8713 29.3193 40.8713 20.181C40.8713 8.75185 31.6011 0.0749512 20.1719 0.0749512ZM8.00945 28.4953C7.90233 28.5777 7.92705 28.7672 8.06713 28.9238C8.19897 29.0556 8.3885 29.1133 8.49562 29.0062C8.60274 28.9238 8.57802 28.7343 8.43794 28.5777C8.30609 28.4459 8.11657 28.3882 8.00945 28.4953ZM7.11951 27.8279C7.06183 27.935 7.14423 28.0668 7.30903 28.1492C7.44088 28.2316 7.60568 28.2069 7.66336 28.0915C7.72104 27.9844 7.63864 27.8526 7.47384 27.7702C7.30903 27.7207 7.17719 27.7455 7.11951 27.8279ZM9.78933 30.7614C9.65748 30.8685 9.70692 31.1157 9.89645 31.2722C10.086 31.4618 10.3249 31.4865 10.4321 31.3546C10.5392 31.2475 10.4897 31.0003 10.3249 30.8438C10.1437 30.6542 9.89645 30.6295 9.78933 30.7614ZM8.84995 29.5501C8.7181 29.6325 8.7181 29.8467 8.84995 30.0362C8.98179 30.2257 9.20427 30.3081 9.3114 30.2257C9.44324 30.1186 9.44324 29.9044 9.3114 29.7149C9.19603 29.5253 8.98179 29.4429 8.84995 29.5501Z" fill="white"/>
</svg>
