<svg width="41" height="40" viewBox="0 0 41 40" fill="none" xmlns="http://www.w3.org/2000/svg">
<path d="M38.014 0H3.71931C2.14788 0 0.871094 1.29464 0.871094 2.88393V37.1161C0.871094 38.7054 2.14788 40 3.71931 40H38.014C39.5854 40 40.8711 38.7054 40.8711 37.1161V2.88393C40.8711 1.29464 39.5854 0 38.014 0ZM12.9604 34.2857H7.03181V15.1964H12.9693V34.2857H12.9604ZM9.99609 12.5893C8.09431 12.5893 6.55859 11.0446 6.55859 9.15179C6.55859 7.25893 8.09431 5.71429 9.99609 5.71429C11.889 5.71429 13.4336 7.25893 13.4336 9.15179C13.4336 11.0536 11.8979 12.5893 9.99609 12.5893ZM35.1836 34.2857H29.255V25C29.255 22.7857 29.2104 19.9375 26.1747 19.9375C23.0854 19.9375 22.6122 22.3482 22.6122 24.8393V34.2857H16.6836V15.1964H22.3711V17.8036H22.4515C23.2461 16.3036 25.1836 14.7232 28.0675 14.7232C34.0675 14.7232 35.1836 18.6786 35.1836 23.8214V34.2857Z" fill="white"/>
</svg>
