<svg width="114" height="114" viewBox="0 0 114 114" fill="none" xmlns="http://www.w3.org/2000/svg">
<path d="M114 57.0001C114 88.366 88.5763 113.78 57.2196 113.78C25.8629 113.78 0.439209 88.366 0.439209 57.0001C0.439209 25.6525 25.8629 0.219727 57.2196 0.219727C88.5763 0.219727 114 25.6525 114 57.0001ZM58.7433 18.9939C46.266 18.9939 38.3081 24.25 32.059 33.5915C31.2494 34.8017 31.5203 36.4339 32.6806 37.3138L40.6251 43.3376C41.8168 44.2412 43.5147 44.0262 44.4406 42.8517C48.5306 37.6641 51.335 34.6559 57.5603 34.6559C62.2376 34.6559 68.023 37.6662 68.023 42.2017C68.023 45.6305 65.1924 47.3914 60.5742 49.9806C55.1883 52.9998 48.0615 56.7577 48.0615 66.1582V67.0741C48.0615 68.5913 49.2916 69.8215 50.8089 69.8215H63.6303C65.1476 69.8215 66.3777 68.5913 66.3777 67.0741V66.7689C66.3777 60.2524 85.4234 59.9811 85.4234 42.3471C85.4234 29.0674 71.6485 18.9939 58.7433 18.9939ZM57.2196 75.7743C51.4122 75.7743 46.6877 80.4987 46.6877 86.3061C46.6877 92.1133 51.4122 96.838 57.2196 96.838C63.027 96.838 67.7514 92.1133 67.7514 86.3061C67.7514 80.4987 63.027 75.7743 57.2196 75.7743Z" fill="white"/>
</svg>
